<?xml version="1.0" encoding="iso-8859-1"?>
<!-- Generator: Adobe Illustrator 16.0.0, SVG Export Plug-In . SVG Version: 6.00 Build 0)  -->
<!DOCTYPE svg PUBLIC "-//W3C//DTD SVG 1.1//EN" "http://www.w3.org/Graphics/SVG/1.1/DTD/svg11.dtd">
<svg version="1.1" id="Capa_1" xmlns="http://www.w3.org/2000/svg" xmlns:xlink="http://www.w3.org/1999/xlink" x="0px" y="0px"
	 width="31.524px" height="31.525px" viewBox="0 0 31.524 31.525" style="enable-background:new 0 0 31.524 31.525;"
	 xml:space="preserve">
<g>
	<path d="M26.13,2.726H5.676C2.648,2.691,0.035,5.075,0,8.102v11.054c-0.036,3.026,2.391,5.512,5.42,5.545l13.663,0.16l7.405,3.786
		c0.47,0.24,1.037,0.192,1.461-0.12c0.423-0.312,0.632-0.828,0.537-1.348l-0.396-2.185h0.002c1.789,0,3.407-2.518,3.432-4.304V8.519
		C31.557,5.49,29.156,2.761,26.13,2.726z M15.354,20.31c-0.999,0-1.676-0.73-1.676-1.711c0-0.998,0.698-1.715,1.676-1.715
		c1.014,0,1.674,0.717,1.695,1.715C17.052,19.577,16.368,20.31,15.354,20.31z M17.618,13.308c-0.695,0.772-0.974,1.507-0.974,2.356
		v0.353h-2.479l-0.018-0.498c-0.058-0.962,0.263-1.942,1.109-2.958c0.603-0.716,1.09-1.32,1.09-1.963
		c0-0.658-0.433-1.09-1.374-1.128c-0.621,0-1.373,0.224-1.863,0.563l-0.641-2.053c0.678-0.393,1.808-0.772,3.145-0.772
		c2.484,0,3.607,1.375,3.607,2.936C19.225,11.577,18.334,12.519,17.618,13.308z"/>
</g>
<g>
</g>
<g>
</g>
<g>
</g>
<g>
</g>
<g>
</g>
<g>
</g>
<g>
</g>
<g>
</g>
<g>
</g>
<g>
</g>
<g>
</g>
<g>
</g>
<g>
</g>
<g>
</g>
<g>
</g>
</svg>
